<svg width="169" height="20" viewBox="0 0 169 20" fill="none" xmlns="http://www.w3.org/2000/svg">
<path d="M10.3437 14.8985L14.2812 17.3985C14.7891 17.7188 15.4141 17.2422 15.2656 16.6563L14.125 12.1719C14.0942 12.0476 14.0991 11.9171 14.1391 11.7955C14.1792 11.6738 14.2529 11.566 14.3516 11.4844L17.8828 8.53908C18.3437 8.15627 18.1094 7.38283 17.5078 7.34377L12.8984 7.04689C12.7727 7.03958 12.6518 6.99578 12.5505 6.92086C12.4492 6.84594 12.3719 6.74314 12.3281 6.62502L10.6094 2.29689C10.5639 2.17182 10.481 2.06377 10.372 1.98742C10.263 1.91107 10.1331 1.87012 10 1.87012C9.8669 1.87012 9.73703 1.91107 9.62802 1.98742C9.519 2.06377 9.43612 2.17182 9.39062 2.29689L7.67187 6.62502C7.62807 6.74314 7.5508 6.84594 7.44952 6.92086C7.34824 6.99578 7.22733 7.03958 7.10156 7.04689L2.49218 7.34377C1.89062 7.38283 1.65625 8.15627 2.11718 8.53908L5.64843 11.4844C5.74713 11.566 5.82077 11.6738 5.86085 11.7955C5.90094 11.9171 5.90584 12.0476 5.875 12.1719L4.82031 16.3281C4.64062 17.0313 5.39062 17.6016 5.99218 17.2188L9.65625 14.8985C9.759 14.8331 9.87824 14.7984 10 14.7984C10.1218 14.7984 10.241 14.8331 10.3437 14.8985Z" fill="#EBC80C"/>
<path d="M32.3437 14.8985L36.2812 17.3985C36.7891 17.7188 37.4141 17.2422 37.2656 16.6563L36.125 12.1719C36.0942 12.0476 36.0991 11.9171 36.1391 11.7955C36.1792 11.6738 36.2529 11.566 36.3516 11.4844L39.8828 8.53908C40.3437 8.15627 40.1094 7.38283 39.5078 7.34377L34.8984 7.04689C34.7727 7.03958 34.6518 6.99578 34.5505 6.92086C34.4492 6.84594 34.3719 6.74314 34.3281 6.62502L32.6094 2.29689C32.5639 2.17182 32.481 2.06377 32.372 1.98742C32.263 1.91107 32.1331 1.87012 32 1.87012C31.8669 1.87012 31.737 1.91107 31.628 1.98742C31.519 2.06377 31.4361 2.17182 31.3906 2.29689L29.6719 6.62502C29.6281 6.74314 29.5508 6.84594 29.4495 6.92086C29.3482 6.99578 29.2273 7.03958 29.1016 7.04689L24.4922 7.34377C23.8906 7.38283 23.6562 8.15627 24.1172 8.53908L27.6484 11.4844C27.7471 11.566 27.8208 11.6738 27.8609 11.7955C27.9009 11.9171 27.9058 12.0476 27.875 12.1719L26.8203 16.3281C26.6406 17.0313 27.3906 17.6016 27.9922 17.2188L31.6562 14.8985C31.759 14.8331 31.8782 14.7984 32 14.7984C32.1218 14.7984 32.241 14.8331 32.3437 14.8985Z" fill="#EBC80C"/>
<path d="M54.3437 14.8985L58.2812 17.3985C58.7891 17.7188 59.4141 17.2422 59.2656 16.6563L58.125 12.1719C58.0942 12.0476 58.0991 11.9171 58.1391 11.7955C58.1792 11.6738 58.2529 11.566 58.3516 11.4844L61.8828 8.53908C62.3437 8.15627 62.1094 7.38283 61.5078 7.34377L56.8984 7.04689C56.7727 7.03958 56.6518 6.99578 56.5505 6.92086C56.4492 6.84594 56.3719 6.74314 56.3281 6.62502L54.6094 2.29689C54.5639 2.17182 54.481 2.06377 54.372 1.98742C54.263 1.91107 54.1331 1.87012 54 1.87012C53.8669 1.87012 53.737 1.91107 53.628 1.98742C53.519 2.06377 53.4361 2.17182 53.3906 2.29689L51.6719 6.62502C51.6281 6.74314 51.5508 6.84594 51.4495 6.92086C51.3482 6.99578 51.2273 7.03958 51.1016 7.04689L46.4922 7.34377C45.8906 7.38283 45.6562 8.15627 46.1172 8.53908L49.6484 11.4844C49.7471 11.566 49.8208 11.6738 49.8609 11.7955C49.9009 11.9171 49.9058 12.0476 49.875 12.1719L48.8203 16.3281C48.6406 17.0313 49.3906 17.6016 49.9922 17.2188L53.6562 14.8985C53.759 14.8331 53.8782 14.7984 54 14.7984C54.1218 14.7984 54.241 14.8331 54.3437 14.8985Z" fill="#EBC80C"/>
<path d="M76.3437 14.8985L80.2812 17.3985C80.7891 17.7188 81.4141 17.2422 81.2656 16.6563L80.125 12.1719C80.0942 12.0476 80.0991 11.9171 80.1391 11.7955C80.1792 11.6738 80.2529 11.566 80.3516 11.4844L83.8828 8.53908C84.3437 8.15627 84.1094 7.38283 83.5078 7.34377L78.8984 7.04689C78.7727 7.03958 78.6518 6.99578 78.5505 6.92086C78.4492 6.84594 78.3719 6.74314 78.3281 6.62502L76.6094 2.29689C76.5639 2.17182 76.481 2.06377 76.372 1.98742C76.263 1.91107 76.1331 1.87012 76 1.87012C75.8669 1.87012 75.737 1.91107 75.628 1.98742C75.519 2.06377 75.4361 2.17182 75.3906 2.29689L73.6719 6.62502C73.6281 6.74314 73.5508 6.84594 73.4495 6.92086C73.3482 6.99578 73.2273 7.03958 73.1016 7.04689L68.4922 7.34377C67.8906 7.38283 67.6562 8.15627 68.1172 8.53908L71.6484 11.4844C71.7471 11.566 71.8208 11.6738 71.8609 11.7955C71.9009 11.9171 71.9058 12.0476 71.875 12.1719L70.8203 16.3281C70.6406 17.0313 71.3906 17.6016 71.9922 17.2188L75.6562 14.8985C75.759 14.8331 75.8782 14.7984 76 14.7984C76.1218 14.7984 76.241 14.8331 76.3437 14.8985Z" fill="#EBC80C"/>
<path d="M98.3437 14.8985L102.281 17.3985C102.789 17.7188 103.414 17.2422 103.266 16.6563L102.125 12.1719C102.094 12.0476 102.099 11.9171 102.139 11.7955C102.179 11.6738 102.253 11.566 102.352 11.4844L105.883 8.53908C106.344 8.15627 106.109 7.38283 105.508 7.34377L100.898 7.04689C100.773 7.03958 100.652 6.99578 100.55 6.92086C100.449 6.84594 100.372 6.74314 100.328 6.62502L98.6094 2.29689C98.5639 2.17182 98.481 2.06377 98.372 1.98742C98.263 1.91107 98.1331 1.87012 98 1.87012C97.8669 1.87012 97.737 1.91107 97.628 1.98742C97.519 2.06377 97.4361 2.17182 97.3906 2.29689L95.6719 6.62502C95.6281 6.74314 95.5508 6.84594 95.4495 6.92086C95.3482 6.99578 95.2273 7.03958 95.1016 7.04689L90.4922 7.34377C89.8906 7.38283 89.6562 8.15627 90.1172 8.53908L93.6484 11.4844C93.7471 11.566 93.8208 11.6738 93.8609 11.7955C93.9009 11.9171 93.9058 12.0476 93.875 12.1719L92.8203 16.3281C92.6406 17.0313 93.3906 17.6016 93.9922 17.2188L97.6562 14.8985C97.759 14.8331 97.8782 14.7984 98 14.7984C98.1218 14.7984 98.241 14.8331 98.3437 14.8985Z" fill="#EBC80C"/>
<path d="M117.091 4.353C116.615 5.263 116.223 6.25467 115.915 7.328C115.607 8.40133 115.453 9.491 115.453 10.597C115.453 11.6517 115.581 12.676 115.838 13.67C116.099 14.664 116.479 15.6837 116.979 16.729H116.097C115.709 16.0757 115.373 15.4293 115.089 14.79C114.809 14.1507 114.589 13.488 114.431 12.802C114.277 12.116 114.2 11.3763 114.2 10.583C114.2 9.43033 114.386 8.322 114.76 7.258C115.133 6.18933 115.614 5.221 116.202 4.353H117.091ZM119.103 4.878H125.144L125.109 5.998H120.209L119.95 9.267C120.286 8.95433 120.652 8.73267 121.049 8.602C121.45 8.46667 121.884 8.399 122.351 8.399C122.958 8.399 123.52 8.525 124.038 8.777C124.556 9.02433 124.971 9.393 125.284 9.883C125.597 10.3683 125.753 10.9703 125.753 11.689C125.753 12.389 125.601 13.0003 125.298 13.523C124.995 14.041 124.568 14.4423 124.017 14.727C123.466 15.0117 122.82 15.154 122.078 15.154C121.453 15.154 120.874 15.0443 120.342 14.825C119.81 14.6057 119.353 14.3 118.97 13.908C118.592 13.516 118.314 13.0657 118.137 12.557L119.257 12.088C119.504 12.662 119.854 13.1357 120.307 13.509C120.76 13.8777 121.32 14.062 121.987 14.062C122.706 14.062 123.282 13.8543 123.716 13.439C124.155 13.019 124.374 12.4497 124.374 11.731C124.374 11.283 124.271 10.891 124.066 10.555C123.861 10.219 123.583 9.96 123.233 9.778C122.888 9.59133 122.505 9.498 122.085 9.498C121.674 9.498 121.299 9.55867 120.958 9.68C120.617 9.79667 120.256 10.0673 119.873 10.492C119.831 10.5107 119.787 10.5083 119.74 10.485L118.648 10.142L119.103 4.878ZM127.302 15V13.796C127.302 13.278 127.397 12.83 127.589 12.452C127.785 12.074 128.041 11.745 128.359 11.465C128.681 11.1803 129.031 10.926 129.409 10.702C129.791 10.478 130.172 10.2633 130.55 10.058C130.932 9.848 131.282 9.631 131.6 9.407C131.922 9.17833 132.178 8.92167 132.37 8.637C132.561 8.34767 132.657 8.007 132.657 7.615C132.657 7.10167 132.475 6.684 132.111 6.362C131.751 6.04 131.264 5.879 130.648 5.879C129.985 5.879 129.453 6.06567 129.052 6.439C128.65 6.81233 128.424 7.30933 128.373 7.93H127.085C127.094 7.34667 127.236 6.81467 127.512 6.334C127.787 5.84867 128.191 5.46133 128.723 5.172C129.255 4.88267 129.913 4.738 130.697 4.738C131.373 4.738 131.961 4.85933 132.461 5.102C132.96 5.34 133.345 5.676 133.616 6.11C133.891 6.53933 134.029 7.041 134.029 7.615C134.029 8.13767 133.933 8.58567 133.742 8.959C133.55 9.33233 133.296 9.65667 132.979 9.932C132.666 10.2073 132.321 10.4523 131.943 10.667C131.569 10.877 131.194 11.08 130.816 11.276C130.442 11.472 130.099 11.6797 129.787 11.899C129.474 12.1183 129.222 12.368 129.031 12.648C128.839 12.928 128.744 13.2617 128.744 13.649V13.852H134.085V15H127.302ZM135.382 16.757L136.166 15.028L135.557 14.993V13.446H137.174V14.79L135.984 16.757H135.382ZM142.784 4.738C143.344 4.738 143.86 4.843 144.331 5.053C144.807 5.25833 145.202 5.55933 145.514 5.956C145.827 6.348 146.021 6.82167 146.095 7.377H144.877C144.742 6.89633 144.495 6.516 144.135 6.236C143.781 5.956 143.337 5.816 142.805 5.816C141.909 5.816 141.237 6.194 140.789 6.95C140.346 7.70133 140.166 8.78633 140.25 10.205C140.442 9.69167 140.773 9.27867 141.244 8.966C141.72 8.64867 142.257 8.49 142.854 8.49C143.517 8.49 144.098 8.62067 144.597 8.882C145.101 9.13867 145.493 9.50733 145.773 9.988C146.053 10.464 146.193 11.0333 146.193 11.696C146.193 12.3727 146.049 12.9723 145.759 13.495C145.475 14.013 145.069 14.419 144.541 14.713C144.014 15.007 143.391 15.154 142.672 15.154C141.888 15.154 141.207 14.951 140.628 14.545C140.054 14.139 139.609 13.5603 139.291 12.809C138.979 12.053 138.822 11.1477 138.822 10.093C138.822 9.01033 138.974 8.06767 139.277 7.265C139.585 6.46233 140.033 5.84167 140.621 5.403C141.209 4.95967 141.93 4.738 142.784 4.738ZM142.644 9.54C142.276 9.54 141.921 9.62867 141.58 9.806C141.244 9.97867 140.969 10.2073 140.754 10.492C140.544 10.7767 140.439 11.0917 140.439 11.437C140.435 11.9503 140.523 12.4077 140.705 12.809C140.892 13.2057 141.151 13.5183 141.482 13.747C141.818 13.971 142.21 14.083 142.658 14.083C143.074 14.083 143.442 13.985 143.764 13.789C144.086 13.593 144.338 13.32 144.52 12.97C144.707 12.62 144.8 12.2163 144.8 11.759C144.8 11.0683 144.614 10.527 144.24 10.135C143.867 9.73833 143.335 9.54 142.644 9.54ZM147.251 4.878H154.356V5.998C153.996 6.49267 153.639 7.05033 153.285 7.671C152.935 8.29167 152.601 8.94267 152.284 9.624C151.966 10.3007 151.682 10.9703 151.43 11.633C151.178 12.2957 150.968 12.9163 150.8 13.495C150.636 14.0737 150.531 14.5753 150.485 15H149.078C149.152 14.538 149.285 13.9663 149.477 13.285C149.673 12.6037 149.929 11.8593 150.247 11.052C150.564 10.24 150.944 9.40233 151.388 8.539C151.836 7.67567 152.351 6.82867 152.935 5.998H147.251V4.878ZM155.837 4.878H162.942V5.998C162.582 6.49267 162.225 7.05033 161.871 7.671C161.521 8.29167 161.187 8.94267 160.87 9.624C160.552 10.3007 160.268 10.9703 160.016 11.633C159.764 12.2957 159.554 12.9163 159.386 13.495C159.222 14.0737 159.117 14.5753 159.071 15H157.664C157.738 14.538 157.871 13.9663 158.063 13.285C158.259 12.6037 158.515 11.8593 158.833 11.052C159.15 10.24 159.53 9.40233 159.974 8.539C160.422 7.67567 160.937 6.82867 161.521 5.998H155.837V4.878ZM164.414 4.353C164.89 5.263 165.282 6.25467 165.59 7.328C165.898 8.40133 166.052 9.491 166.052 10.597C166.052 11.6517 165.921 12.676 165.66 13.67C165.403 14.664 165.025 15.6837 164.526 16.729H165.408C165.795 16.0757 166.129 15.4293 166.409 14.79C166.693 14.1507 166.913 13.488 167.067 12.802C167.225 12.116 167.305 11.3763 167.305 10.583C167.305 9.43033 167.118 8.322 166.745 7.258C166.371 6.18933 165.891 5.221 165.303 4.353H164.414Z" fill="#77878F"/>
</svg>
